{
	"asset":{
		"generator":"Khronos glTF Blender I/O v4.2.57",
		"version":"2.0"
	},
	"scene":0,
	"scenes":[
		{
			"name":"Scene",
			"nodes":[
				3,
				4
			]
		}
	],
	"nodes":[
		{
			"mesh":0,
			"name":"Mesh_0.001"
		},
		{
			"children":[
				0
			],
			"name":"duck.obj.cleaner.materialmerger.gles"
		},
		{
			"children":[
				1
			],
			"name":"RootNode (model correction matrix)"
		},
		{
			"children":[
				2
			],
			"name":"RootNode (gltf orientation matrix)",
			"rotation":[
				-0.70710688829422,
				0,
				0,
				0.7071066498756409
			]
		},
		{
			"mesh":1,
			"name":"Suzanne",
			"translation":[
				-1.6378751993179321,
				0,
				0
			]
		}
	],
	"materials":[
		{
			"doubleSided":true,
			"name":"Duck.001",
			"pbrMetallicRoughness":{
				"baseColorTexture":{
					"index":0
				},
				"metallicFactor":0,
				"roughnessFactor":0.8434915542602539
			}
		},
		{
			"doubleSided":true,
			"name":"Material.001",
			"pbrMetallicRoughness":{
				"baseColorTexture":{
					"index":1
				},
				"metallicFactor":0,
				"roughnessFactor":0.5
			}
		}
	],
	"meshes":[
		{
			"name":"Mesh_0.001",
			"primitives":[
				{
					"attributes":{
						"POSITION":0,
						"NORMAL":1,
						"TEXCOORD_0":2
					},
					"indices":3,
					"material":0
				}
			]
		},
		{
			"name":"Suzanne",
			"primitives":[
				{
					"attributes":{
						"POSITION":4,
						"NORMAL":5,
						"TEXCOORD_0":6
					},
					"indices":7,
					"material":1
				}
			]
		}
	],
	"textures":[
		{
			"sampler":0,
			"source":0
		},
		{
			"sampler":0,
			"source":1
		}
	],
	"images":[
		{
			"mimeType":"image/png",
			"name":"Duck_baseColor",
			"uri":"Duck_baseColor.png"
		},
		{
			"mimeType":"image/png",
			"name":"UV",
			"uri":"UV.png"
		}
	],
	"accessors":[
		{
			"bufferView":0,
			"componentType":5126,
			"count":5683,
			"max":[
				0.3625209927558899,
				0.5130379796028137,
				1.0525829792022705
			],
			"min":[
				-0.3625209927558899,
				-0.48232200741767883,
				0.00014600000577047467
			],
			"type":"VEC3"
		},
		{
			"bufferView":1,
			"componentType":5126,
			"count":5683,
			"type":"VEC3"
		},
		{
			"bufferView":2,
			"componentType":5126,
			"count":5683,
			"type":"VEC2"
		},
		{
			"bufferView":3,
			"componentType":5123,
			"count":33216,
			"type":"SCALAR"
		},
		{
			"bufferView":4,
			"componentType":5126,
			"count":1966,
			"max":[
				1.3671875,
				0.984375,
				0.8515625
			],
			"min":[
				-1.3671875,
				-0.984375,
				-0.8515625
			],
			"type":"VEC3"
		},
		{
			"bufferView":5,
			"componentType":5126,
			"count":1966,
			"type":"VEC3"
		},
		{
			"bufferView":6,
			"componentType":5126,
			"count":1966,
			"type":"VEC2"
		},
		{
			"bufferView":7,
			"componentType":5123,
			"count":2904,
			"type":"SCALAR"
		}
	],
	"bufferViews":[
		{
			"buffer":0,
			"byteLength":68196,
			"byteOffset":0,
			"target":34962
		},
		{
			"buffer":0,
			"byteLength":68196,
			"byteOffset":68196,
			"target":34962
		},
		{
			"buffer":0,
			"byteLength":45464,
			"byteOffset":136392,
			"target":34962
		},
		{
			"buffer":0,
			"byteLength":66432,
			"byteOffset":181856,
			"target":34963
		},
		{
			"buffer":0,
			"byteLength":23592,
			"byteOffset":248288,
			"target":34962
		},
		{
			"buffer":0,
			"byteLength":23592,
			"byteOffset":271880,
			"target":34962
		},
		{
			"buffer":0,
			"byteLength":15728,
			"byteOffset":295472,
			"target":34962
		},
		{
			"buffer":0,
			"byteLength":5808,
			"byteOffset":311200,
			"target":34963
		}
	],
	"samplers":[
		{
			"magFilter":9729,
			"minFilter":9987
		}
	],
	"buffers":[
		{
			"byteLength":317008,
			"uri":"scene.bin"
		}
	]
}
